<svg width="16" height="16" viewBox="0 0 16 16" fill="none" xmlns="http://www.w3.org/2000/svg">
<g clip-path="url(#clip0_191_1841)">
<path d="M7.99999 15.4667C3.89333 15.4667 0.533325 12.1067 0.533325 7.99999C0.533325 3.89333 3.89333 0.533325 7.99999 0.533325C12.1067 0.533325 15.4667 3.89333 15.4667 7.99999C15.4667 12.1067 12.1067 15.4667 7.99999 15.4667ZM7.99999 1.33333C4.31999 1.33333 1.33333 4.31999 1.33333 7.99999C1.33333 11.68 4.31999 14.6667 7.99999 14.6667C11.68 14.6667 14.6667 11.68 14.6667 7.99999C14.6667 4.31999 11.68 1.33333 7.99999 1.33333Z" fill="#94999D"/>
<path d="M15.0667 8.39998H0.933325C0.719992 8.39998 0.533325 8.21331 0.533325 7.99998C0.533325 7.78664 0.719992 7.59998 0.933325 7.59998H15.0667C15.28 7.59998 15.4667 7.78664 15.4667 7.99998C15.4667 8.21331 15.28 8.39998 15.0667 8.39998Z" fill="#94999D"/>
<path d="M7.99998 15.4667C6.15998 15.4667 4.77332 12.2667 4.77332 7.99999C4.77332 3.73333 6.15998 0.533325 7.99998 0.533325C9.83998 0.533325 11.2266 3.73333 11.2266 7.99999C11.2266 12.2667 9.83998 15.4667 7.99998 15.4667ZM7.99998 1.33333C6.85332 1.33333 5.57332 4.07999 5.57332 7.99999C5.57332 11.92 6.85332 14.6667 7.99998 14.6667C9.14665 14.6667 10.4266 11.92 10.4266 7.99999C10.4266 4.07999 9.14665 1.33333 7.99998 1.33333Z" fill="#94999D"/>
<path d="M8.00003 5.57333C6.00003 5.57333 4.13336 4.8 2.72003 3.38667C2.56003 3.22667 2.56003 2.98667 2.72003 2.82667C2.88003 2.66667 3.12003 2.66667 3.28003 2.82667C4.53336 4.08 6.21336 4.77333 8.00003 4.77333C9.7867 4.77333 11.4667 4.08 12.72 2.82667C12.88 2.66667 13.12 2.66667 13.28 2.82667C13.44 2.98667 13.44 3.22667 13.28 3.38667C11.8667 4.8 10 5.57333 8.00003 5.57333ZM12.9867 13.3067C12.88 13.3067 12.7734 13.28 12.6934 13.2C11.44 11.9467 9.76003 11.2533 7.97336 11.2533C6.1867 11.2533 4.5067 11.9467 3.25336 13.2C3.09336 13.36 2.85336 13.36 2.69336 13.2C2.53336 13.04 2.53336 12.8 2.69336 12.64C4.1067 11.2267 5.97336 10.4533 7.97336 10.4533C9.97336 10.4533 11.84 11.2267 13.2534 12.64C13.4134 12.8 13.4134 13.04 13.2534 13.2C13.2 13.2533 13.0934 13.3067 12.9867 13.3067Z" fill="#94999D"/>
</g>
<defs>
<clipPath id="clip0_191_1841">
<rect width="16" height="16" fill="white"/>
</clipPath>
</defs>
</svg>
