<?xml version="1.0" standalone="no"?><!DOCTYPE svg PUBLIC "-//W3C//DTD SVG 1.1//EN" "http://www.w3.org/Graphics/SVG/1.1/DTD/svg11.dtd"><svg t="1687333733986" class="icon" viewBox="0 0 1024 1024" version="1.1" xmlns="http://www.w3.org/2000/svg" p-id="3247" xmlns:xlink="http://www.w3.org/1999/xlink" width="63" height="63"><path d="M828.16 129.706667H376.533333a85.333333 85.333333 0 0 0-89.173333 78.506666v56.96H190.293333A83.626667 83.626667 0 0 0 106.666667 348.586667V810.666667a83.84 83.84 0 0 0 83.626666 85.333333h462.72a83.84 83.84 0 0 0 83.626667-85.333333v-50.986667h91.52A85.333333 85.333333 0 0 0 917.333333 681.386667V208.213333a85.333333 85.333333 0 0 0-89.173333-78.506666zM693.973333 810.666667a40.96 40.96 0 0 1-40.96 42.666666H190.293333A40.96 40.96 0 0 1 149.333333 810.666667V348.586667a40.96 40.96 0 0 1 40.96-40.746667h462.72a40.96 40.96 0 0 1 40.96 40.746667zM874.666667 681.386667a42.666667 42.666667 0 0 1-46.506667 35.626666h-91.52V348.586667a83.626667 83.626667 0 0 0-83.626667-83.413334H330.026667V208.213333a42.666667 42.666667 0 0 1 46.506666-35.84h451.626667A42.666667 42.666667 0 0 1 874.666667 208.213333z" fill="#888f9c" p-id="3248"></path><path d="M554.666667 469.333333H277.333333a21.333333 21.333333 0 0 0 0 42.666667h277.333334a21.333333 21.333333 0 0 0 0-42.666667zM554.666667 661.333333H277.333333a21.333333 21.333333 0 0 0 0 42.666667h277.333334a21.333333 21.333333 0 0 0 0-42.666667z" fill="#888f9c" p-id="3249"></path></svg>