<svg width="15" height="15" viewBox="0 0 15 15" fill="none" xmlns="http://www.w3.org/2000/svg">
<g clip-path="url(#clip0_12195_4375)">
<path d="M13.7259 11.5288C14.5596 10.3123 15 8.89043 15 7.41379C15 3.34603 11.6358 0.0368958 7.50017 0.0368958C3.36457 0.0368958 0 3.34603 0 7.41379C0 11.4816 3.36457 14.7907 7.50017 14.7907C8.81759 14.7907 10.113 14.4499 11.2481 13.8047C13.6541 14.7172 13.9683 14.5748 14.1562 14.4895L14.2291 14.4568L14.2903 14.4056C14.4247 14.2926 14.5638 14.1759 14.5075 13.7635C14.4515 13.3549 14.203 12.6442 13.7259 11.5288ZM12.5464 11.4989L12.6811 11.8082C12.9185 12.3532 13.1653 12.9702 13.3292 13.4269C12.8282 13.2749 12.1372 13.0339 11.5184 12.7945L11.2372 12.6856L10.982 12.8447C9.94138 13.4914 8.73724 13.8334 7.50017 13.8334C3.90138 13.8334 0.973621 10.9536 0.973621 7.41379C0.973621 3.87396 3.90138 0.994223 7.50017 0.994223C11.099 0.994223 14.0267 3.87396 14.0267 7.41379C14.0267 8.7994 13.5851 10.1184 12.7497 11.2285L12.5464 11.4989Z" fill="#333333"/>
<path d="M5.30005 6.26397C5.31401 5.76448 5.33988 5.38466 5.4441 5.12457C5.54841 4.8644 5.69298 4.63207 5.92212 4.42733C6.15143 4.22276 6.40686 4.07198 6.68807 3.97474C6.96945 3.87776 7.26643 3.82914 7.5791 3.82914C8.21108 3.82914 8.72634 4.04776 9.14651 4.4188C9.53738 4.76405 9.69996 5.27724 9.69996 5.86854C9.69996 6.14621 9.65703 6.39767 9.54945 6.62293C9.44169 6.84854 9.28953 7.1294 8.93876 7.46586C8.58807 7.80242 8.35531 8.04173 8.24065 8.18371C8.12608 8.32604 8.03901 8.49578 7.98022 8.69362C7.92108 8.89147 7.90212 8.88931 7.90212 8.99345H6.98496C6.98496 8.86155 7.01617 8.79078 7.07884 8.55845C7.14134 8.32612 7.23505 8.12302 7.36022 7.94974C7.48522 7.7763 7.711 7.52138 8.03738 7.18483C8.36384 6.84854 8.57419 6.60397 8.66781 6.4513C8.76143 6.2988 8.8085 6.07147 8.8085 5.76983C8.8085 5.46793 8.70074 5.20104 8.48539 4.96845C8.27005 4.73621 7.95746 4.62 7.54772 4.62C6.62367 4.62 6.16186 5.16802 6.16186 6.26405H5.30005V6.26397ZM7.91979 10.9985H6.96419V9.93707H7.91979V10.9985Z" fill="#333333"/>
</g>
<defs>
<clipPath id="clip0_12195_4375">
<rect width="15" height="14.8276" fill="white"/>
</clipPath>
</defs>
</svg>
