<svg width="16" height="18" viewBox="0 0 16 18" fill="none" xmlns="http://www.w3.org/2000/svg">
<path d="M8.07466 13.7094C8.15554 13.7094 8.23746 13.7053 8.32041 13.6949C8.71431 13.6429 9.0851 13.4792 9.389 13.2233C9.6929 12.9673 9.91723 12.6298 10.0355 12.2505C10.0447 12.2226 10.0435 12.1923 10.0321 12.1652C10.0206 12.1381 9.99973 12.1161 9.97328 12.1032C9.94654 12.0908 9.91611 12.089 9.88805 12.098C9.85999 12.107 9.83636 12.1263 9.82189 12.152C9.81981 12.1572 9.50459 12.6777 8.27686 12.8467C8.10096 12.8715 7.92358 12.8843 7.74595 12.8851C6.88634 12.8851 6.50371 12.5533 6.5006 12.5502C6.47958 12.5309 6.45223 12.5201 6.42374 12.5197C6.39525 12.5193 6.36762 12.5294 6.34609 12.5481C6.32464 12.5672 6.31051 12.5932 6.30616 12.6216C6.30181 12.65 6.3075 12.679 6.32225 12.7036C6.69554 13.3247 7.36747 13.7094 8.07466 13.7094ZM14.6706 5.93869L14.6395 5.94076C13.9219 2.7605 11.1751 0.386963 7.88179 0.386963C4.49828 0.386963 1.68924 2.89115 1.06708 6.20414C0.763932 6.26394 0.491268 6.42794 0.296378 6.66772C0.101487 6.9075 -0.00333798 7.20792 8.10685e-05 7.5169V10.1497C8.10685e-05 10.888 0.579725 11.4863 1.29417 11.4863C1.69754 11.4863 2.0532 11.2913 2.28962 10.9927C2.5686 11.7523 2.99619 12.4488 3.54741 13.0413C4.09862 13.6338 4.7624 14.1105 5.49996 14.4436C5.51853 14.4061 5.5404 14.3704 5.56529 14.3368C5.5881 14.3057 5.61402 14.2808 5.63683 14.2808C5.65965 14.2808 5.68142 14.2891 5.69905 14.3015C5.3579 14.0423 4.12603 12.7088 3.85954 10.8465C3.74236 10.0273 4.34275 9.22161 5.04164 9.08888C6.16567 8.87528 7.28141 8.63263 8.40544 8.42214C9.11988 8.28941 9.60828 7.88915 9.90588 7.22241C9.97535 7.06687 10.0759 6.75164 10.1236 6.29747C10.1285 6.26491 10.1447 6.23512 10.1693 6.21331C10.194 6.1915 10.2255 6.17908 10.2584 6.17822C10.3051 6.17822 10.3445 6.20207 10.3704 6.23629L10.4015 6.21762C10.8443 6.874 11.7215 8.32778 11.848 9.8614C11.9932 11.6148 11.9113 12.8166 10.5985 14.0444C10.5878 14.0547 10.5792 14.0671 10.5733 14.0808C10.5674 14.0945 10.5644 14.1093 10.5643 14.1242C10.5643 14.1626 10.584 14.1947 10.612 14.2144L10.6452 14.2289C10.6535 14.231 10.6618 14.2341 10.6711 14.2341C10.6805 14.2341 10.6877 14.231 10.696 14.2289L10.7499 14.1978C12.0994 13.4319 13.1067 12.181 13.5673 10.6992C13.757 10.9896 14.0557 11.197 14.402 11.2695C13.8462 13.8536 11.5919 15.4712 8.79947 15.7159C8.70227 15.4678 8.52148 15.2614 8.28833 15.1324C8.05517 15.0034 7.78428 14.9598 7.52243 15.0092C7.26058 15.0586 7.0242 15.1979 6.85411 15.4031C6.68402 15.6082 6.59089 15.8663 6.59081 16.1328C6.54194 16.2893 6.5274 16.4546 6.54819 16.6173C6.56898 16.7799 6.62461 16.9362 6.71129 17.0755C6.79797 17.2147 6.91365 17.3336 7.05045 17.4241C7.18725 17.5145 7.34195 17.5744 7.50401 17.5997C7.66606 17.6249 7.83165 17.6149 7.98949 17.5704C8.14733 17.5258 8.29371 17.4477 8.41863 17.3415C8.54356 17.2352 8.6441 17.1033 8.71341 16.9546C8.78271 16.806 8.81914 16.6441 8.82021 16.4801C12.0534 16.2105 14.6446 14.2466 15.187 11.1949C15.4295 11.09 15.6359 10.9161 15.7804 10.6949C15.925 10.4737 16.0013 10.2148 15.9999 9.95057V7.28877C15.9999 6.54426 15.4047 5.94076 14.6716 5.94076L14.6706 5.93869ZM13.4781 6.70394C12.6351 4.36878 10.4503 2.70139 7.87868 2.70139C5.31953 2.70139 3.14198 4.3553 2.29066 6.67491C2.24918 6.62203 2.19837 6.5764 2.14964 6.52974C2.63181 3.7041 5.01157 1.55455 7.88179 1.55455C10.7375 1.55455 13.111 3.68233 13.6088 6.49033C13.5586 6.55727 13.5148 6.62879 13.4781 6.70394Z" fill="#DF581E"/>
</svg>
