<svg width="15" height="16" viewBox="0 0 15 16" fill="none" xmlns="http://www.w3.org/2000/svg">
<g clip-path="url(#clip0_12202_4309)">
<path d="M7.5 0.0570107C3.3826 0.0570107 0.0570068 2.90752 0.0570068 6.39147C0.0570068 8.54519 1.3239 10.5405 3.47761 11.7124C3.69932 11.8391 3.98437 11.7441 4.11106 11.5224C4.23775 11.3007 4.14273 11.0156 3.92103 10.8889C2.08403 9.87542 1.00718 8.19679 1.00718 6.39147C1.00718 3.41427 3.92103 1.00718 7.5 1.00718C11.079 1.00718 13.9928 3.41427 13.9928 6.39147C13.9928 9.36867 11.079 11.7758 7.5 11.7758C7.37331 11.7758 7.24662 11.8391 7.1516 11.9024L5.4413 13.6128V12.2508C5.4413 11.9975 5.21959 11.7758 4.96621 11.7758C4.71283 11.7758 4.49113 11.9975 4.49113 12.2508V14.7846C4.49113 14.9747 4.61782 15.1647 4.77618 15.228C4.83952 15.2597 4.90287 15.2597 4.96621 15.2597C5.0929 15.2597 5.21959 15.1964 5.31461 15.133L7.7217 12.7259C11.7441 12.6309 14.9747 9.84375 14.9747 6.39147C14.943 2.90752 11.6174 0.0570107 7.5 0.0570107Z" fill="#333333"/>
<path d="M3.541 5.75802H11.4591C11.7125 5.75802 11.9342 5.53632 11.9342 5.28294C11.9342 5.02956 11.7125 4.80785 11.4591 4.80785H3.541C3.28762 4.80785 3.06592 5.02956 3.06592 5.28294C3.06592 5.53632 3.28762 5.75802 3.541 5.75802ZM3.541 8.60853H9.7171C9.97048 8.60853 10.1922 8.38682 10.1922 8.13344C10.1922 7.88007 9.97048 7.65836 9.7171 7.65836H3.541C3.28762 7.65836 3.06592 7.88007 3.06592 8.13344C3.06592 8.38682 3.28762 8.60853 3.541 8.60853Z" fill="#333333"/>
</g>
<defs>
<clipPath id="clip0_12202_4309">
<rect width="15" height="15.3041" fill="white"/>
</clipPath>
</defs>
</svg>
