<svg width="15" height="15" viewBox="0 0 15 15" fill="none" xmlns="http://www.w3.org/2000/svg">
<g clip-path="url(#clip0_12195_4354)">
<path d="M7.49194 14.8508C7.15726 14.8508 6.84678 14.6855 6.66129 14.4073L5.67742 12.9274C5.50403 12.6653 5.18952 12.5363 4.87903 12.5968L3.1371 12.9476C2.81049 13.0121 2.47178 12.9113 2.23387 12.6774C1.99597 12.4395 1.89516 12.1048 1.96371 11.7742L2.31452 10.0323C2.375 9.72177 2.24597 9.41129 1.98387 9.23387L0.504034 8.25C0.225808 8.06452 0.0604858 7.75403 0.0604858 7.41935C0.0604858 7.08468 0.225808 6.77419 0.504034 6.58871L1.98387 5.60484C2.24597 5.43145 2.375 5.11694 2.31452 4.80645L1.96371 3.06452C1.8992 2.7379 2 2.39919 2.23387 2.16532C2.47178 1.92742 2.80645 1.82661 3.1371 1.89516L4.87903 2.24597C5.18952 2.31048 5.5 2.17742 5.67742 1.91532L6.66129 0.443548C6.84678 0.165323 7.15726 0 7.49194 0C7.82661 0 8.1371 0.165323 8.32258 0.443548L9.30645 1.92339C9.47984 2.18548 9.79436 2.31452 10.1048 2.25403L11.8468 1.90323C12.1734 1.83871 12.5121 1.93952 12.75 2.17339C12.9879 2.40726 13.0887 2.74597 13.0202 3.07258L12.6694 4.81452C12.6089 5.125 12.7379 5.43548 13 5.6129L14.4798 6.59677C14.7581 6.78226 14.9234 7.09274 14.9234 7.42742C14.9234 7.7621 14.7581 8.07258 14.4798 8.25806L12.9919 9.23387C12.7298 9.40726 12.6008 9.72177 12.6613 10.0323L13.0121 11.7702C13.0766 12.0968 12.9758 12.4355 12.7419 12.6734C12.504 12.9113 12.1694 13.0121 11.8387 12.9435L10.0968 12.5927C9.78629 12.5323 9.47581 12.6613 9.29839 12.9234L8.31452 14.4032C8.1371 14.6815 7.82661 14.8508 7.49194 14.8508ZM5.04032 11.6129C5.61694 11.6129 6.16129 11.8992 6.48791 12.3911L7.47178 13.871C7.47581 13.875 7.47984 13.8831 7.49597 13.8831C7.5121 13.8831 7.51613 13.875 7.52016 13.871L8.50403 12.3911C8.8992 11.7984 9.60081 11.5081 10.2984 11.6492L12.0403 12C12.0444 12 12.0565 12.004 12.0645 11.9919C12.0766 11.9798 12.0726 11.9718 12.0726 11.9677L11.7218 10.2258C11.5806 9.52823 11.875 8.82258 12.4637 8.43145L13.9436 7.44758C13.9476 7.44355 13.9556 7.43952 13.9556 7.42339C13.9556 7.40726 13.9476 7.40323 13.9436 7.39919L12.4637 6.41532C11.871 6.02016 11.5806 5.31855 11.7218 4.62097L12.0726 2.87903C12.0726 2.875 12.0766 2.8629 12.0645 2.85484C12.0524 2.84274 12.0444 2.84677 12.0403 2.84677L10.2984 3.19758C9.60081 3.33871 8.89516 3.04435 8.50403 2.45565L7.52016 0.975806C7.51613 0.971774 7.5121 0.96371 7.49597 0.96371C7.47984 0.96371 7.47581 0.971774 7.47178 0.975806L6.48791 2.45565C6.09274 3.04839 5.39113 3.33871 4.69355 3.19758L2.95161 2.84677C2.94758 2.84677 2.93549 2.84274 2.92742 2.85484C2.91532 2.86694 2.91936 2.875 2.91936 2.87903L3.27016 4.62097C3.41129 5.31855 3.11694 6.02419 2.52823 6.41532L1.04839 7.39919C1.04436 7.40323 1.03629 7.40726 1.03629 7.42339C1.03629 7.43952 1.04436 7.44355 1.04839 7.44758L2.5242 8.42742C3.11694 8.82258 3.40726 9.52419 3.26613 10.2218L2.91532 11.9637C2.91532 11.9677 2.91129 11.9798 2.92339 11.9879C2.93549 12 2.94355 11.996 2.94758 11.996L4.68952 11.6452C4.80645 11.625 4.92339 11.6129 5.04032 11.6129Z" fill="#333333"/>
<path d="M6.87099 9.77822C6.75809 9.77822 6.64115 9.7379 6.55244 9.65726L4.37502 7.73387C4.17341 7.55645 4.15728 7.25 4.33067 7.05242C4.50808 6.85081 4.81454 6.83468 5.01212 7.00806L6.84679 8.62903L9.85486 5.56855C10.0403 5.37903 10.3468 5.375 10.5403 5.56451C10.7299 5.75 10.7339 6.05645 10.5444 6.25L7.21373 9.64113C7.12099 9.72984 6.99599 9.77822 6.87099 9.77822Z" fill="#333333"/>
</g>
<defs>
<clipPath id="clip0_12195_4354">
<rect width="15" height="14.9194" fill="white"/>
</clipPath>
</defs>
</svg>
