<svg width="15" height="17" viewBox="0 0 15 17" fill="none" xmlns="http://www.w3.org/2000/svg">
<g clip-path="url(#clip0_12195_4361)">
<path d="M13.892 6.53267V6.43466C13.892 2.90412 11.0295 0.0426135 7.49999 0.0426135C3.97051 0.0426135 1.10794 2.90412 1.10794 6.43466V6.53267C0.48898 6.7532 0.0426025 7.33807 0.0426025 8.03267V10.1634C0.0426025 11.0455 0.758512 11.7614 1.64061 11.7614C2.52272 11.7614 3.23863 11.0455 3.23863 10.1634V8.03267C3.23863 7.33807 2.79225 6.7532 2.17328 6.53267V6.43466C2.17328 3.49219 4.55752 1.10795 7.49999 1.10795C10.4425 1.10795 12.8267 3.49219 12.8267 6.43466V6.53267C12.2077 6.7532 11.7614 7.33807 11.7614 8.03267V10.1634C11.7614 11.0455 12.4773 11.7614 13.3594 11.7614C14.2415 11.7614 14.9574 11.0455 14.9574 10.1634V8.03267C14.9574 7.33807 14.511 6.7532 13.892 6.53267ZM2.17328 10.1634C2.17328 10.4563 1.93465 10.696 1.64061 10.696C1.34658 10.696 1.10794 10.4563 1.10794 10.1634V8.03267C1.10794 7.73757 1.34658 7.5 1.64061 7.5C1.93465 7.5 2.17328 7.73757 2.17328 8.03267V10.1634ZM13.892 10.1634C13.892 10.4563 13.6534 10.696 13.3594 10.696C13.0653 10.696 12.8267 10.4563 12.8267 10.1634V8.03267C12.8267 7.73757 13.0653 7.5 13.3594 7.5C13.6534 7.5 13.892 7.73757 13.892 8.03267V10.1634ZM9.63067 14.9116V14.4247C9.63067 14.1296 9.39203 13.892 9.098 13.892H6.96732C6.67328 13.892 6.43465 14.1296 6.43465 14.4247V15.4901C6.43465 15.783 6.67328 16.0227 6.96732 16.0227H9.098C11.7454 16.0227 13.892 14.1147 13.892 11.7614H13.3594H12.8267C12.8267 13.37 11.4343 14.6868 9.63067 14.9116Z" fill="#333333"/>
</g>
<defs>
<clipPath id="clip0_12195_4361">
<rect width="15" height="16.0227" fill="white"/>
</clipPath>
</defs>
</svg>
