<svg width="15" height="15" viewBox="0 0 15 15" fill="none" xmlns="http://www.w3.org/2000/svg">
<g clip-path="url(#clip0_12195_4382)">
<path d="M7.49997 4.57473C5.88698 4.57473 4.57471 5.887 4.57471 7.5C4.57471 9.113 5.88698 10.4253 7.49997 10.4253C9.11297 10.4253 10.4252 9.113 10.4252 7.5C10.4252 5.88699 9.11297 4.57473 7.49997 4.57473ZM7.49997 9.40325C6.45053 9.40325 5.59674 8.54946 5.59674 7.5C5.59674 6.45055 6.45053 5.59676 7.49997 5.59676C8.54942 5.59676 9.40321 6.45055 9.40321 7.5C9.40321 8.54944 8.54942 9.40325 7.49997 9.40325Z" fill="#333333"/>
<path d="M14.5396 8.67483L13.5922 8.12785C13.6134 7.91971 13.6241 7.70926 13.6241 7.5C13.6241 7.29074 13.6134 7.08028 13.5922 6.87215L14.5396 6.32515C14.8989 6.11768 15.0225 5.65659 14.815 5.29733L13.0651 2.26633C12.8576 1.90702 12.3965 1.78351 12.0372 1.99091L11.0898 2.5379C10.7494 2.2912 10.3849 2.08037 10.0024 1.90891V0.816083C10.0024 0.401188 9.66482 0.0636444 9.24991 0.0636444H5.75004C5.33514 0.0636444 4.9976 0.401188 4.9976 0.816083V1.90891C4.61509 2.08037 4.2506 2.2912 3.91016 2.5379L2.96273 1.99091C2.60342 1.78346 2.14233 1.907 1.93489 2.26633L0.184944 5.29733C-0.022495 5.65664 0.101052 6.11773 0.460365 6.32517L1.40776 6.87215C1.38655 7.0803 1.37584 7.29074 1.37584 7.5C1.37584 7.70926 1.38655 7.91973 1.40776 8.12785L0.460365 8.67483C0.101069 8.88227 -0.022495 9.34336 0.184944 9.70269L1.93489 12.7337C2.14236 13.093 2.60342 13.2165 2.96273 13.0091L3.91014 12.4621C4.25058 12.7088 4.6151 12.9196 4.9976 13.0911V14.1839C4.9976 14.5988 5.33514 14.9364 5.75004 14.9364H9.24991C9.66481 14.9364 10.0024 14.5988 10.0024 14.1839V13.0911C10.3849 12.9196 10.7494 12.7088 11.0898 12.4621L12.0372 13.0091C12.3965 13.2165 12.8576 13.093 13.0651 12.7337L14.815 9.70269C15.0224 9.34339 14.8989 8.8823 14.5396 8.67483ZM12.3148 11.9892L11.4469 11.4881C11.1818 11.335 10.8541 11.3567 10.6122 11.5432C10.2538 11.8195 9.86095 12.0468 9.44452 12.2186C9.16253 12.335 8.98032 12.6078 8.98032 12.9136V13.9143H6.01964V12.9136C6.01964 12.6078 5.83742 12.335 5.55541 12.2186C5.13898 12.0467 4.74613 11.8195 4.38779 11.5432C4.14589 11.3567 3.81821 11.335 3.55304 11.4881L2.6852 11.9892L1.20485 9.42514L2.07235 8.92429C2.33694 8.77153 2.48212 8.47751 2.44217 8.17519C2.41277 7.95276 2.39785 7.7256 2.39785 7.5C2.39785 7.2744 2.41276 7.04722 2.44217 6.82478C2.4821 6.52251 2.33694 6.22849 2.07235 6.07573L1.20485 5.57486L2.6852 3.01083L3.55304 3.51189C3.81814 3.66497 4.1458 3.64335 4.38775 3.45682C4.74613 3.18049 5.139 2.95326 5.55541 2.78142C5.83742 2.66506 6.01965 2.39226 6.01965 2.08642V1.0857H8.98032V2.08642C8.98032 2.39226 9.16255 2.66508 9.44456 2.78142C9.86097 2.95324 10.2538 3.18047 10.6123 3.45685C10.8542 3.64335 11.1818 3.66494 11.4469 3.51189L12.3148 3.01083L13.7951 5.57486L12.9276 6.07573C12.663 6.2285 12.5178 6.52251 12.5578 6.82481C12.5872 7.04722 12.6021 7.2744 12.6021 7.5C12.6021 7.72561 12.5872 7.95278 12.5578 8.17522C12.5178 8.47749 12.663 8.77151 12.9276 8.92429L13.7951 9.42514L12.3148 11.9892Z" fill="#333333"/>
</g>
<defs>
<clipPath id="clip0_12195_4382">
<rect width="15" height="15" fill="white"/>
</clipPath>
</defs>
</svg>
