<svg width="36" height="36" viewBox="0 0 36 36" fill="none" xmlns="http://www.w3.org/2000/svg">
<circle cx="18" cy="18" r="18" fill="#EFB82D" fill-opacity="0.14"/>
<path d="M17.9988 27.9998C17.3975 27.9998 16.8213 27.8295 16.3763 27.5228L10.495 23.4504C9.6425 22.861 9 21.6485 9 20.6328V11.5568C9 11.029 9.19125 10.4819 9.54125 10.0182C9.89 9.55199 10.3662 9.21021 10.8812 9.0532L10.8875 9.052L10.8938 9.04958C11.1163 8.96866 11.7512 8.75611 12.8537 8.52302C14.5448 8.17114 16.2702 7.99582 18 8.00008C19.7663 8.00008 21.4975 8.1764 23.145 8.52422C24.2513 8.75731 24.8888 8.97108 25.11 9.052L25.115 9.05441L25.1213 9.05562C25.6338 9.21745 26.1088 9.56165 26.4575 10.0266C26.8063 10.4928 27 11.0363 27 11.5592V20.6352C27 21.6521 26.3563 22.8646 25.505 23.454L19.6213 27.5264C19.1432 27.8407 18.577 28.006 17.9988 27.9998ZM11.33 10.3817C10.875 10.5157 10.4613 11.0737 10.4613 11.5568V20.6328C10.4613 21.1932 10.8862 21.9975 11.3525 22.32L17.235 26.3936C17.4313 26.5288 17.7025 26.6037 18 26.6037C18.2963 26.6037 18.5688 26.5288 18.765 26.3936L24.6463 22.32C25.1213 21.9915 25.5388 21.2016 25.5388 20.6328V11.5568C25.5388 11.0785 25.12 10.5206 24.6587 10.3793L24.6038 10.36C24.4582 10.3089 24.311 10.2622 24.1625 10.2199C23.7238 10.0918 23.275 9.97952 22.8288 9.88653C21.2863 9.56044 19.6613 9.39619 18 9.39619C16.3388 9.39619 14.7138 9.56165 13.17 9.88653C12.7225 9.97952 12.275 10.0918 11.835 10.2199C11.6869 10.2626 11.5401 10.3098 11.395 10.3612L11.33 10.3817ZM16.54 20.5591C16.3466 20.5595 16.1609 20.4856 16.0238 20.3538L13.5938 18.0301C13.4623 17.8983 13.3897 17.7218 13.3918 17.5388C13.3939 17.3557 13.4705 17.1808 13.605 17.0519C13.7401 16.9216 13.9227 16.8476 14.1136 16.8458C14.3045 16.844 14.4885 16.9145 14.6263 17.0422L16.54 18.8719L21.3725 14.2512C21.5108 14.1238 21.695 14.0537 21.886 14.0557C22.0771 14.0578 22.2597 14.1318 22.395 14.2621C22.5295 14.391 22.6061 14.5659 22.6082 14.749C22.6103 14.932 22.5377 15.1085 22.4063 15.2403L17.0563 20.3538C16.9191 20.4856 16.7334 20.5595 16.54 20.5591Z" fill="#EFB82D"/>
</svg>
