<svg width="36" height="36" viewBox="0 0 36 36" fill="none" xmlns="http://www.w3.org/2000/svg">
<circle cx="18" cy="18" r="18" fill="#EFB82D" fill-opacity="0.14"/>
<path d="M18 17.5263C22.3637 17.5263 27 16.0338 27 13.2632C27 10.4925 22.3637 9 18 9C13.6363 9 9 10.4925 9 13.2632C9 16.0338 13.6363 17.5263 18 17.5263ZM18 10.7042C22.4949 10.7042 25.3646 12.2181 25.3646 13.2632C25.3646 14.3082 22.4949 15.8194 18 15.8194C13.5051 15.8194 10.6354 14.3055 10.6354 13.2632C10.6354 12.2208 13.5051 10.7042 18 10.7042Z" fill="#EFB82D"/>
<path d="M10.6309 16.7818C10.2657 16.5184 9.75396 16.5995 9.48907 16.9592C9.15475 17.41 8.99017 17.8913 9.00045 18.3878C9.02103 19.6011 10.0754 20.6574 11.963 21.3641C13.524 21.9492 15.548 22.2633 17.6953 22.2633C17.8188 22.2633 17.9448 22.2608 18.0708 22.2608C22.4349 22.1848 27.0459 20.6928 26.9997 18.0788C26.9945 17.6988 26.8865 17.329 26.6756 16.9769C26.4467 16.5919 25.9401 16.4652 25.5569 16.6907C25.166 16.9161 25.0349 17.41 25.2663 17.7951C25.3306 17.904 25.3615 18.0028 25.3641 18.1041C25.3821 19.0894 22.5378 20.5687 18.0425 20.6498C15.9491 20.6751 14.0075 20.4041 12.5468 19.8569C11.3947 19.4263 10.6463 18.8387 10.6386 18.3574C10.636 18.2206 10.6952 18.0686 10.8109 17.909C11.0758 17.5468 10.9961 17.0427 10.6309 16.7818Z" fill="#EFB82D"/>
<path d="M25.4417 21.4537C25.0689 21.7021 24.966 22.204 25.2206 22.5741C25.3183 22.7161 25.3646 22.8454 25.3646 22.9671C25.3646 23.9531 22.4949 25.3879 18 25.3879C13.5051 25.3879 10.6354 23.9531 10.6354 22.9671C10.6354 22.8479 10.6791 22.7237 10.7666 22.5919C11.0134 22.2192 10.9106 21.7199 10.5326 21.474C10.1546 21.2306 9.648 21.3346 9.39857 21.7047C9.13371 22.1026 9 22.526 9 22.9645C9 25.5882 13.6363 27.0001 18 27.0001C22.3637 27.0001 27 25.5882 27 22.9671C27 22.5184 26.8586 22.0824 26.5783 21.6717C26.3263 21.3016 25.8171 21.2053 25.4417 21.4537Z" fill="#EFB82D"/>
</svg>
