<svg width="36" height="36" viewBox="0 0 36 36" fill="none" xmlns="http://www.w3.org/2000/svg">
<circle cx="18" cy="18" r="18" fill="#EFB82D" fill-opacity="0.14"/>
<path d="M17.1957 19.8042V26.1786H19.017V19.8042H17.1957ZM17.1957 17.9829H19.017C20.0187 17.9829 20.8383 18.8025 20.8383 19.8042V26.1786C20.8383 27.1803 20.0187 27.9999 19.017 27.9999H17.1957C16.194 27.9999 15.3745 27.1803 15.3745 26.1786V19.8042C15.3745 18.8025 16.194 17.9829 17.1957 17.9829ZM10.8213 22.5361V26.1786H12.6426V22.5361H10.8213ZM10.8213 20.7148H12.6426C13.6443 20.7148 14.4638 21.5344 14.4638 22.5361V26.1786C14.4638 27.1803 13.6443 27.9999 12.6426 27.9999H10.8213C9.81957 27.9999 9 27.1803 9 26.1786V22.5361C9 21.5344 9.81957 20.7148 10.8213 20.7148ZM25.3915 25.268C25.3915 24.7216 25.7557 24.3574 26.3021 24.3574C26.8485 24.3574 27.2127 24.7216 27.2127 25.268V26.1786C27.2127 27.1803 26.3932 27.9999 25.3915 27.9999H23.5702C22.5685 27.9999 21.7489 27.1803 21.7489 26.1786V17.0723C21.7489 16.0706 22.5685 15.251 23.5702 15.251H25.3915C26.3932 15.251 27.2127 16.0706 27.2127 17.0723V21.6254C27.2127 22.1718 26.8485 22.5361 26.3021 22.5361C25.7557 22.5361 25.3915 22.1718 25.3915 21.6254V17.0723H23.5702V26.1786H25.3915V25.268Z" fill="#EFB82D"/>
<path d="M10.457 18.8937C10.0016 19.1669 9.45525 18.9847 9.27313 18.5294C9.091 18.0741 9.18206 17.5277 9.63738 17.3456L25.3003 9.14984C25.7557 8.87665 26.302 9.05878 26.4842 9.5141C26.7574 9.96942 26.5752 10.5158 26.1199 10.6979L10.457 18.8937Z" fill="#EFB82D"/>
<path d="M23.297 9.78726C22.8417 9.60513 22.5685 9.14981 22.7507 8.60343C22.9328 8.14811 23.3881 7.87492 23.9345 8.05705L26.6664 8.96769C27.1217 9.14981 27.3949 9.60513 27.3038 10.0605L26.4843 12.5192C26.3021 12.9745 25.8468 13.2477 25.3915 13.1566C24.9362 12.9745 24.663 12.5192 24.7541 12.0639L25.2094 10.4247L23.297 9.78726Z" fill="#EFB82D"/>
</svg>
