<svg width="80" height="80" viewBox="0 0 80 80" fill="none" xmlns="http://www.w3.org/2000/svg">
<circle cx="40" cy="40" r="40" fill="#E74B71"/>
<path d="M24.3564 55.5563C23.5753 54.7753 23.5753 53.5089 24.3564 52.7279L52.6406 24.4436C53.4217 23.6626 54.688 23.6626 55.469 24.4436V24.4436C56.2501 25.2247 56.2501 26.491 55.469 27.272L27.1848 55.5563C26.4037 56.3374 25.1374 56.3374 24.3564 55.5563V55.5563Z" fill="white"/>
<path d="M55.4691 55.5565C54.6881 56.3375 53.4218 56.3375 52.6407 55.5565L24.3564 27.2722C23.5754 26.4912 23.5754 25.2248 24.3564 24.4438V24.4438C25.1375 23.6627 26.4038 23.6627 27.1849 24.4438L55.4691 52.7281C56.2502 53.5091 56.2502 54.7754 55.4691 55.5565V55.5565Z" fill="white"/>
</svg>
