<svg width="16" height="16" viewBox="0 0 16 16" fill="none" xmlns="http://www.w3.org/2000/svg">
<path d="M8.66719 8.66738H4.66719C4.29844 8.66738 4 8.36895 4 8.0002C4 7.63145 4.29844 7.33301 4.66719 7.33301H8.66719C9.03594 7.33301 9.33438 7.63145 9.33438 8.0002C9.33438 8.36895 9.03438 8.66738 8.66719 8.66738ZM8.66719 11.333H4.66719C4.29844 11.333 4 11.0346 4 10.6658C4 10.2971 4.29844 9.99863 4.66719 9.99863H8.66719C9.03594 9.99863 9.33438 10.2971 9.33438 10.6658C9.33438 11.0346 9.03438 11.333 8.66719 11.333Z" fill="#BFBFBF"/>
<path d="M9.66719 13.9999H3.66719C2.74844 13.9999 2 13.2515 2 12.3327V6.33271C2 5.41396 2.74844 4.66553 3.66719 4.66553H9.66719C10.5859 4.66553 11.3344 5.41396 11.3344 6.33271V12.3327C11.3328 13.2515 10.5859 13.9999 9.66719 13.9999ZM3.66719 5.9999C3.48594 5.9999 3.33437 6.15303 3.33437 6.33271V12.3327C3.33437 12.514 3.4875 12.6655 3.66719 12.6655H9.66719C9.84844 12.6655 10 12.5124 10 12.3327V6.33271C10 6.15146 9.84688 5.9999 9.66719 5.9999H3.66719V5.9999Z" fill="#BFBFBF"/>
<path d="M12.3327 11.3329C11.964 11.3329 11.6655 11.0345 11.6655 10.6657C11.6655 10.297 11.964 9.99854 12.3327 9.99854C12.514 9.99854 12.6655 9.84541 12.6655 9.66572V3.66572C12.6655 3.48447 12.5124 3.33291 12.3327 3.33291H6.33271C6.15146 3.33291 5.9999 3.48604 5.9999 3.66572C5.9999 4.03447 5.70146 4.33291 5.33271 4.33291C4.96396 4.33291 4.66553 4.03447 4.66553 3.66572C4.66553 2.74697 5.41396 1.99854 6.33271 1.99854H12.3327C13.2515 1.99854 13.9999 2.74697 13.9999 3.66572V9.66572C13.9999 10.586 13.2515 11.3329 12.3327 11.3329Z" fill="#BFBFBF"/>
</svg>
