<svg width="13" height="14" viewBox="0 0 13 14" fill="none" xmlns="http://www.w3.org/2000/svg">
<g id="Group 1000002245">
<path id="Vector" d="M9.05941 2.6608H1.51786C0.681022 2.6608 0 3.34166 0 4.17866V11.7199C0 12.5567 0.680863 13.2376 1.51786 13.2376H9.05909C9.89593 13.2376 10.577 12.5567 10.577 11.7199V4.17866C10.5771 3.34166 9.89625 2.6608 9.05941 2.6608Z" fill="#AAAAAA"/>
<path id="Vector_2" d="M13 9.37515V2.4629C13 1.23406 12.0038 0.237915 10.775 0.237915H3.45236C3.18074 0.237915 2.96069 0.45812 2.96069 0.729579C2.96069 1.0012 3.1809 1.22124 3.45236 1.22124H10.775C11.4607 1.22124 12.0165 1.77713 12.0165 2.46274V9.65199C12.0165 9.92361 12.2367 10.1437 12.5081 10.1437C12.7797 10.1437 12.9998 9.92345 12.9998 9.65199V9.37515H13Z" fill="#AAAAAA"/>
</g>
</svg>
