<?xml version="1.0" encoding="UTF-8"?>
<svg width="28px" height="28px" viewBox="0 0 28 28" version="1.1" xmlns="http://www.w3.org/2000/svg" xmlns:xlink="http://www.w3.org/1999/xlink">
    <title>编组</title>
    <g id="页面-1" stroke="none" stroke-width="1" fill="none" fill-rule="evenodd" opacity="0.883324033">
        <g id="Home" transform="translate(-652.000000, -1489.000000)" fill="#C2C2C2" fill-rule="nonzero">
            <g id="编组-9" transform="translate(0.000000, 1458.000000)">
                <g id="Assets" transform="translate(634.000000, 19.000000)">
                    <g id="Assets切图" transform="translate(18.000000, 12.000000)">
                        <g id="编组" transform="translate(3.000000, 3.000000)">
                            <path d="M19.4460065,3.38893818 C19.2615401,3.40870679 19.0990341,3.43506493 18.9321359,3.44385098 C18.4951263,3.4658161 18.0581166,3.47899517 17.621107,3.49876378 C17.0501396,3.52512193 16.4769762,3.55587309 15.9082049,3.58882078 C15.8906367,3.58882078 15.8774605,3.58882078 15.8598923,3.59101729 C15.3021011,3.60858938 14.7487019,3.62616148 14.1909107,3.6481266 C13.3717922,3.67887777 12.5548696,3.71402196 11.7357511,3.74916616 C11.0769426,3.77772081 10.415938,3.81286501 9.75932557,3.84141966 C9.06977268,3.87217083 8.37802375,3.90511851 7.68847086,3.9380662 C7.05381867,3.96881736 6.41916649,4.00176505 5.78231827,4.0303197 C4.98076793,4.0654639 4.17921759,4.09621507 3.37766725,4.13135926 C3.04387094,4.14673484 2.71007464,4.15991392 2.37847436,4.17748601 C1.88656402,4.20384416 1.39904573,4.23239881 0.89615524,4.26095347 C0.8698029,4.5025698 0.964232118,4.66291518 1.12673821,4.79470591 C1.29144034,4.93088965 1.48908289,4.99898153 1.69550955,5.01875014 C1.98099323,5.04510828 2.26647692,5.06487689 2.5519606,5.06487689 C8.12328447,5.0670734 13.6990004,5.0670734 19.2703243,5.07146643 C19.4921231,5.07146643 19.718314,5.07366294 19.9335248,5.11978969 C20.9480899,5.33285136 21.6090944,5.94128521 21.9099503,6.93850169 C21.9736351,7.14497383 22,7.35583899 22,7.57329368 C21.9977914,11.5445875 21.9933994,15.5180779 22,19.4893717 C22.0021835,20.6425405 21.1413404,21.7869233 19.7995671,21.9824129 C19.6809816,22 19.5602,21.9933955 19.4394184,21.9933955 C13.8088018,21.9933955 8.18257723,21.9868059 2.55415663,22 C1.47590672,22.0021815 0.415225036,21.2839221 0.098996957,20.1637009 C0.0440962488,19.9748009 0.0331161072,19.7727218 0.00456773892,19.5772322 C-0.00421637439,19.5223194 0.00237171059,19.4652101 0.00237171059,19.4102973 L0.00237171059,4.29390115 C0.00237171059,4.06985692 0.0111558239,3.85020571 0.0858207871,3.63494753 C0.243934827,3.17148348 0.599691416,2.91888459 1.02352488,2.74316363 C1.40563381,2.58281824 1.81409508,2.50813683 2.22255635,2.44224147 C2.94285364,2.32802284 3.66315093,2.20282166 4.38344823,2.08201349 L6.49602748,1.72837505 C7.10871938,1.62513898 7.71701923,1.52190291 8.3275151,1.42086336 C9.05440048,1.30005519 9.78348188,1.17924703 10.5125633,1.05843886 C11.3250938,0.920058603 12.1398203,0.77948183 12.9545468,0.645494593 C13.7670773,0.509310845 14.5839998,0.37752012 15.3965303,0.245729396 C15.842324,0.173244497 16.2881178,0.0853840141 16.7361076,0.0238816759 C16.9535144,-0.00467298104 17.1819013,-0.00467298104 17.4037002,0.00850609142 C17.7923972,0.0370607484 18.1767022,0.0853840141 18.5412429,0.234746835 C19.1166023,0.469773627 19.4328304,0.898093482 19.4569867,1.51092035 C19.483339,2.09738908 19.4635748,2.69044734 19.4635748,3.27911257 C19.4635748,3.30547072 19.4547906,3.33622189 19.4460065,3.38893818 Z M19.5821603,13.541217 C19.6041206,12.7570622 18.9892326,11.8586887 17.9263549,11.8652783 C16.9513183,11.8718678 16.2595694,12.5791447 16.2573685,13.5302344 C16.2551774,14.4835207 16.9952389,15.1864045 17.9021986,15.1951906 C18.8311186,15.2017801 19.5821603,14.454966 19.5821603,13.541217 Z" id="形状"></path>
                        </g>
                    </g>
                </g>
            </g>
        </g>
    </g>
</svg>