<?xml version="1.0" encoding="UTF-8"?>
<svg width="28px" height="28px" viewBox="0 0 28 28" version="1.1" xmlns="http://www.w3.org/2000/svg" xmlns:xlink="http://www.w3.org/1999/xlink">
    <title>Contract切图</title>
    <g id="页面-1" stroke="none" stroke-width="1" fill="none" fill-rule="evenodd" opacity="0.883324033">
        <g id="Home" transform="translate(-361.000000, -1489.000000)" fill="#C2C2C2" fill-rule="nonzero">
            <g id="编组-9" transform="translate(0.000000, 1458.000000)">
                <g id="编组-12备份" transform="translate(333.500000, 19.000000)">
                    <g id="Contract" transform="translate(27.500000, 12.000000)">
                        <g id="编组" transform="translate(5.000000, 3.000000)">
                            <path d="M15.3440233,0 L3.65597668,0 C1.64334305,0 0,1.49416666 0,3.3275 L0,18.6725 C0,20.5058333 1.64334305,22 3.65597668,22 L15.3440233,22 C17.356657,22 19,20.5058333 19,18.6725 L19,3.3275 C19,1.49416666 17.356657,0 15.3440233,0 L15.3440233,0 Z M6.75617104,4.06083334 L11.391691,4.06083334 C11.9015748,4.06083334 12.3149174,4.47123898 12.3149174,4.97750001 C12.3149174,5.48376103 11.9015748,5.89416668 11.391691,5.89416668 L6.75617104,5.89416668 C6.24628716,5.89416668 5.8329446,5.48376103 5.8329446,4.97750001 C5.8329446,4.47123898 6.24628716,4.06083334 6.75617104,4.06083334 L6.75617104,4.06083334 Z M3.90709428,9.09333333 C3.90709428,8.58707231 4.32043683,8.17666666 4.83032071,8.17666666 L13.3175413,8.17666666 C13.8274252,8.17666666 14.2407677,8.58707231 14.2407677,9.09333333 C14.2407677,9.59959435 13.8274252,10.01 13.3175413,10.01 L4.83032071,10.01 C4.32043683,10.01 3.90709428,9.59959435 3.90709428,9.09333333 L3.90709428,9.09333333 Z M12.3527697,17.9391667 C10.8479106,17.9391667 9.61078717,16.72 9.61078717,15.2166667 C9.61078717,13.7225 10.8479106,12.5033333 12.3527697,12.5033333 C13.866861,12.5033333 15.0947522,13.7225 15.0947522,15.2166667 C15.0947522,16.7202619 13.8671248,17.9391667 12.3527697,17.9391667 L12.3527697,17.9391667 Z" id="形状"></path>
                        </g>
                    </g>
                </g>
            </g>
        </g>
    </g>
</svg>