<?xml version="1.0" encoding="UTF-8"?>
<svg width="28px" height="28px" viewBox="0 0 28 28" version="1.1" xmlns="http://www.w3.org/2000/svg" xmlns:xlink="http://www.w3.org/1999/xlink">
    <title>home切图</title>
    <g id="页面-1" stroke="none" stroke-width="1" fill="none" fill-rule="evenodd">
        <g id="Home" transform="translate(-70.000000, -1489.000000)" fill="#FFFFFF" fill-rule="nonzero">
            <g id="编组-9" transform="translate(0.000000, 1458.000000)">
                <g id="编组-3" transform="translate(56.000000, 19.000000)">
                    <g id="home" transform="translate(14.000000, 12.000000)">
                        <g id="编组" transform="translate(2.000000, 3.000000)">
                            <path d="M16.0124349,20.0602709 L5.30006299,20.0602709 L5.30006299,20.0571423 L8.00575691,20.0571423 L8.00575691,16.4592577 C8.00575691,16.4342289 8.01375718,16.4123288 8.0137572,16.3888643 C8.06337725,14.2675328 9.83870994,12.574276 12.0090959,12.5782249 C14.1801035,12.5734235 15.9564021,14.2669234 16.0060346,16.3888643 C16.0060346,16.4123287 16.0124349,16.4357932 16.0124349,16.4592577 L16.0124349,20.0602709 Z M23.5470964,7.1125791 L21.0174086,5.5076097 L21.0174086,2.39935022 C21.0174086,1.86436042 20.5693931,1.42948566 20.0157738,1.42948568 C19.7515442,1.4282384 19.497653,1.5297697 19.3100634,1.7116999 C19.1224737,1.89363011 19.0165857,2.14102384 19.0157391,2.39935022 L19.0157391,4.24052858 L12.5579149,0.142068696 C12.3879697,0.0403256684 12.1905086,-0.00875441927 11.9914953,0.00128188773 C11.7978347,-0.00589227388 11.6063297,0.0430910953 11.4410762,0.142068696 L0.451894695,7.11414341 C0.230307445,7.25368774 0.0751214274,7.4741876 0.0210032092,7.72638615 C-0.033115009,7.9785847 0.0183439023,8.24146782 0.163884682,8.45631079 C0.469834791,8.90317241 1.08570652,9.02777054 1.54793273,8.73632007 L2.00074845,8.44848931 L2.00074845,20.3481017 C2.00074845,21.2585229 2.85037795,22 3.89521421,22 L20.1229775,22 C21.1678138,22 22.0174433,21.2585229 22.0174433,20.3481017 L22.0174433,8.45943938 L22.4510584,8.73475579 C22.9140219,9.0269523 23.5311874,8.90153986 23.8367065,8.45318219 C23.9820214,8.23839344 24.0331884,7.97561349 23.9787569,7.72365017 C23.9243253,7.47168685 23.7688397,7.25157694 23.5470964,7.1125791 Z" id="形状"></path>
                        </g>
                    </g>
                </g>
            </g>
        </g>
    </g>
</svg>