<?xml version="1.0" encoding="UTF-8"?>
<svg width="28px" height="28px" viewBox="0 0 28 28" version="1.1" xmlns="http://www.w3.org/2000/svg" xmlns:xlink="http://www.w3.org/1999/xlink">
    <title>Market切图</title>
    <g id="页面-1" stroke="none" stroke-width="1" fill="none" fill-rule="evenodd" opacity="0.883324033">
        <g id="Home" transform="translate(-215.000000, -1489.000000)" fill="#C2C2C2" fill-rule="nonzero">
            <g id="编组-9" transform="translate(0.000000, 1458.000000)">
                <g id="编组-12" transform="translate(196.500000, 19.000000)">
                    <g id="Market" transform="translate(18.500000, 12.000000)">
                        <g id="编组" transform="translate(3.000000, 3.000000)">
                            <path d="M20.090473,6.67185487 C20.9931556,5.5961427 22.002887,5.84925145 22,7.16601957 L22,7.16601957 L22,21.0357762 C22,21.5389805 21.5862643,22 21.1030977,22 L21.1030977,22 L0.92582825,22 C0.442661632,22 0,21.5389805 0,21.0357762 L0,21.0357762 L0,15.0786811 C0,14.1114441 0.468700552,13.6052266 0.957653596,14.0903517 L0.957653596,14.0903517 L3.68595372,16.3261456 C4.05339181,16.6515711 4.60310233,17.0975246 4.90978294,16.7088219 L4.90978294,16.7088219 L8.0373465,12.7524912 C8.34402711,12.3637885 8.89663084,11.8183994 9.26696214,12.1408117 L9.26696214,12.1408117 L11.9576505,14.5815032 C12.3279818,14.9039155 13.0917901,15.470397 13.3926843,15.0756679 L13.3926843,15.0756679 Z M21.0029071,0.0482660751 C21.9915449,-0.160228081 22.2970715,0.326258283 21.6831361,1.13127738 L21.6831361,1.13127738 L13.4800364,11.721043 C13.2321563,12.03668 12.8661009,12.2393827 12.46834,12.282819 C12.070579,12.3320468 11.6699357,12.2017379 11.3644091,11.944016 L11.3644091,11.944016 L8.33796685,9.38417105 L5.29999529,13.4121623 C5.02040967,13.7828186 4.58517845,14 4.1240063,14 C3.78389183,14 3.45242435,13.8812742 3.19013268,13.6640927 L3.19013268,13.6640927 L0.541275126,11.4835914 C-0.08995426,10.9652517 -0.182188691,10.0299238 0.333747656,9.39575406 C0.849684004,8.76158434 1.78067529,8.66892027 2.41190467,9.1872599 L2.41190467,9.1872599 L3.87612626,10.3918928 L6.92562713,6.34942278 C7.16774251,6.02509854 7.53379791,5.81660439 7.93732354,5.77027235 C8.3437315,5.72683607 8.74437481,5.84845766 9.05278369,6.10907535 L9.05278369,6.10907535 L12.0936376,8.68339903 L16.0222479,3.73166283 L14.926964,2.81660514 C14.148736,2.16795666 14.3216755,1.46428888 15.3103134,1.25579473 L15.3103134,1.25579473 Z" id="形状结合"></path>
                        </g>
                    </g>
                </g>
            </g>
        </g>
    </g>
</svg>